<svg xmlns="http://www.w3.org/2000/svg" viewBox="0 0 1024 1024"><path d="M 727 893 L 731 893 Z M 712 893 L 713 893 Z M 709 893 L 710 893 Z M 273 893 L 279 893 Z M 266 893 L 267 893 Z M 296 892 L 299 892 Z M 247 892 L 248 892 Z M 243 892 L 244 892 Z M 685 891 L 687 891 Z M 307 891 L 308 891 Z M 236 891 L 237 891 Z M 679 890 L 680 890 Z M 316 890 L 317 890 Z M 229 890 L 231 890 Z M 781 887 L 782 887 Z M 653 885 L 654 885 Z M 716 781 L 718 781 Z M 700 781 L 707 781 Z M 291 781 L 297 781 Z M 271 781 L 279 781 Z M 732 780 L 734 780 Z M 689 780 L 694 780 Z M 309 780 L 310 780 Z M 318 779 L 319 779 Z M 675 778 L 676 778 Z M 247 778 L 249 778 Z M 670 777 L 671 777 Z M 757 776 L 759 776 Z M 238 776 L 239 776 Z M 638 768 L 639 768 Z M 844 738 L 848 738 Z M 149 738 L 151 738 Z M 224 403 L 224 404 Z M 657 384 L 657 385 Z M 658 380 L 658 382 Z M 780 377 L 780 378 Z M 216 376 L 216 377 Z M 661 366 L 661 368 Z M 662 358 L 662 359 Z M 211 356 L 211 357 Z M 210 350 L 210 351 Z M 663 347 L 663 350 Z M 787 344 L 787 345 Z M 333 344 L 333 345 Z M 788 340 L 788 341 Z M 789 331 L 789 332 Z M 207 331 L 207 333 Z M 205 315 L 205 317 Z M 663 311 L 663 313 Z M 792 302 L 792 303 Z M 204 300 L 204 306 Z M 792 298 L 792 299 Z M 792 295 L 792 296 Z M 661 295 L 661 296 Z M 336 290 L 336 291 Z M 792 267 L 792 271 Z M 342 265 L 342 266 Z M 653 262 L 653 263 Z M 204 262 L 204 263 Z M 204 258 L 204 260 Z M 791 249 L 791 251 Z M 205 247 L 205 249 Z M 206 237 L 206 240 Z M 642 230 L 642 231 Z M 788 228 L 788 229 Z M 208 224 L 208 226 Z M 787 221 L 787 223 Z M 211 210 L 211 211 Z M 213 201 L 213 202 Z M 248 132 L 247 133 L 245 133 L 244 134 L 243 134 L 243 135 L 241 137 L 241 138 L 239 140 L 239 141 L 238 142 L 238 143 L 237 144 L 237 145 L 236 146 L 236 147 L 235 148 L 235 149 L 234 150 L 234 151 L 233 152 L 233 153 L 232 154 L 232 155 L 231 156 L 231 158 L 230 159 L 230 160 L 229 161 L 229 162 L 228 163 L 228 164 L 227 165 L 227 167 L 226 168 L 226 169 L 225 170 L 224 169 L 224 168 L 224 169 L 225 170 L 225 172 L 224 173 L 224 175 L 223 176 L 223 178 L 222 179 L 222 180 L 221 181 L 221 183 L 220 184 L 220 186 L 219 187 L 219 190 L 218 191 L 218 193 L 217 194 L 217 196 L 216 197 L 216 200 L 215 201 L 215 204 L 214 205 L 214 208 L 213 209 L 213 213 L 212 214 L 212 218 L 211 219 L 211 223 L 210 224 L 210 229 L 209 230 L 209 236 L 208 237 L 208 245 L 207 246 L 207 255 L 206 256 L 206 307 L 207 308 L 207 319 L 208 320 L 208 327 L 209 328 L 209 335 L 210 336 L 210 341 L 211 342 L 211 347 L 212 348 L 212 352 L 213 353 L 213 358 L 214 359 L 214 362 L 215 363 L 215 366 L 216 367 L 216 370 L 217 371 L 217 374 L 218 375 L 218 378 L 219 379 L 219 382 L 220 383 L 220 385 L 221 386 L 221 388 L 222 389 L 222 391 L 223 392 L 223 395 L 224 396 L 224 398 L 225 399 L 225 401 L 226 402 L 226 403 L 227 404 L 227 406 L 228 407 L 228 409 L 229 410 L 229 411 L 230 412 L 230 414 L 231 415 L 231 416 L 232 417 L 232 419 L 233 420 L 233 421 L 234 422 L 234 424 L 235 425 L 235 426 L 236 427 L 236 428 L 237 429 L 237 430 L 238 431 L 238 432 L 239 433 L 239 434 L 240 435 L 240 436 L 241 437 L 241 438 L 242 439 L 242 441 L 241 442 L 242 441 L 244 443 L 244 444 L 245 445 L 245 446 L 246 447 L 246 448 L 247 449 L 247 450 L 248 451 L 248 452 L 250 454 L 250 455 L 251 456 L 251 457 L 252 458 L 252 459 L 254 461 L 254 462 L 256 464 L 256 465 L 257 466 L 257 467 L 259 469 L 259 470 L 261 472 L 261 473 L 263 475 L 263 476 L 265 478 L 265 479 L 267 481 L 267 482 L 269 484 L 269 485 L 271 487 L 271 488 L 274 491 L 274 492 L 276 494 L 276 495 L 278 497 L 278 498 L 277 499 L 278 498 L 280 500 L 280 501 L 282 503 L 282 504 L 284 506 L 284 507 L 287 510 L 287 511 L 289 513 L 289 514 L 291 516 L 291 517 L 293 519 L 293 520 L 296 523 L 296 524 L 298 526 L 298 527 L 300 529 L 300 530 L 299 531 L 300 530 L 302 532 L 302 533 L 305 536 L 305 537 L 304 538 L 305 537 L 307 539 L 307 540 L 310 543 L 310 544 L 312 546 L 312 547 L 314 549 L 314 550 L 316 552 L 316 553 L 319 556 L 319 557 L 321 559 L 321 560 L 323 562 L 323 563 L 326 566 L 326 567 L 328 569 L 328 570 L 331 573 L 331 574 L 333 576 L 333 577 L 334 578 L 333 579 L 333 580 L 333 579 L 334 578 L 335 579 L 335 580 L 338 583 L 338 584 L 341 587 L 341 588 L 343 590 L 343 591 L 342 592 L 343 591 L 345 593 L 345 594 L 344 595 L 345 594 L 348 597 L 348 598 L 350 600 L 350 601 L 353 604 L 353 605 L 355 607 L 355 608 L 357 610 L 357 611 L 360 614 L 360 615 L 363 618 L 363 619 L 365 621 L 365 622 L 367 624 L 367 625 L 370 628 L 370 629 L 372 631 L 372 632 L 375 635 L 375 636 L 377 638 L 377 639 L 379 641 L 379 642 L 382 645 L 382 646 L 384 648 L 384 649 L 386 651 L 386 652 L 389 655 L 389 656 L 391 658 L 391 659 L 393 661 L 393 662 L 395 664 L 395 665 L 398 668 L 398 669 L 400 671 L 400 672 L 402 674 L 402 675 L 405 678 L 405 679 L 407 681 L 407 682 L 409 684 L 409 685 L 412 688 L 412 689 L 414 691 L 414 692 L 417 695 L 417 696 L 419 698 L 419 699 L 421 701 L 421 702 L 423 704 L 423 705 L 426 708 L 426 709 L 428 711 L 428 712 L 430 714 L 430 715 L 433 718 L 433 719 L 434 720 L 434 722 L 424 732 L 423 732 L 416 739 L 415 739 L 412 742 L 411 742 L 408 745 L 407 745 L 404 748 L 403 748 L 401 750 L 400 750 L 398 752 L 397 752 L 395 754 L 394 754 L 393 755 L 392 755 L 390 757 L 389 757 L 388 758 L 387 758 L 386 759 L 385 759 L 384 760 L 383 760 L 382 761 L 381 761 L 380 762 L 379 762 L 378 763 L 377 763 L 376 764 L 375 764 L 374 765 L 373 765 L 372 766 L 371 766 L 370 767 L 368 767 L 367 768 L 366 768 L 365 769 L 363 769 L 362 770 L 360 770 L 359 771 L 358 771 L 357 772 L 355 772 L 354 773 L 352 773 L 351 774 L 348 774 L 347 775 L 345 775 L 344 776 L 341 776 L 340 777 L 337 777 L 336 778 L 333 778 L 332 779 L 328 779 L 327 780 L 322 780 L 321 781 L 315 781 L 314 782 L 306 782 L 305 783 L 267 783 L 266 782 L 258 782 L 257 781 L 251 781 L 250 780 L 245 780 L 244 779 L 240 779 L 239 778 L 236 778 L 235 777 L 232 777 L 231 776 L 228 776 L 227 775 L 224 775 L 223 774 L 221 774 L 220 773 L 218 773 L 217 772 L 218 771 L 217 772 L 215 772 L 214 771 L 212 771 L 211 770 L 209 770 L 208 769 L 207 769 L 206 768 L 204 768 L 203 767 L 202 767 L 201 766 L 199 766 L 198 765 L 197 765 L 196 764 L 195 764 L 194 763 L 192 763 L 190 761 L 191 760 L 190 761 L 188 761 L 187 760 L 186 760 L 184 758 L 183 758 L 182 757 L 181 757 L 180 756 L 179 756 L 178 755 L 177 755 L 176 754 L 175 754 L 173 752 L 172 752 L 171 751 L 170 751 L 168 749 L 167 749 L 166 748 L 165 748 L 163 746 L 162 746 L 160 744 L 159 744 L 157 742 L 156 742 L 155 741 L 154 741 L 153 740 L 148 740 L 147 741 L 146 741 L 145 742 L 144 742 L 144 743 L 142 745 L 142 746 L 140 748 L 140 749 L 137 752 L 137 753 L 135 755 L 135 756 L 133 758 L 133 759 L 131 761 L 131 762 L 128 765 L 128 766 L 126 768 L 126 769 L 124 771 L 124 772 L 122 774 L 122 775 L 119 778 L 119 779 L 117 781 L 117 782 L 115 784 L 115 785 L 113 787 L 113 788 L 110 791 L 110 792 L 109 793 L 108 792 L 109 793 L 108 794 L 108 795 L 106 797 L 105 796 L 104 797 L 105 796 L 106 797 L 106 798 L 103 801 L 103 802 L 102 803 L 102 804 L 99 807 L 99 808 L 97 810 L 97 811 L 95 813 L 95 814 L 92 817 L 92 818 L 90 820 L 90 828 L 96 834 L 97 834 L 99 836 L 100 836 L 102 838 L 103 838 L 105 840 L 106 840 L 107 841 L 108 841 L 111 844 L 112 844 L 113 845 L 114 845 L 116 847 L 117 847 L 118 848 L 119 848 L 121 850 L 122 850 L 123 851 L 124 851 L 125 852 L 126 852 L 128 854 L 129 854 L 130 855 L 131 855 L 132 856 L 133 856 L 134 857 L 135 857 L 136 858 L 137 858 L 138 859 L 139 859 L 140 860 L 141 860 L 142 861 L 143 861 L 144 862 L 145 862 L 146 863 L 147 863 L 148 864 L 149 864 L 150 865 L 152 865 L 153 866 L 154 866 L 155 867 L 156 867 L 157 868 L 159 868 L 160 869 L 161 869 L 162 870 L 163 870 L 164 871 L 166 871 L 167 872 L 169 872 L 170 873 L 171 873 L 172 874 L 174 874 L 175 875 L 177 875 L 178 876 L 180 876 L 181 877 L 183 877 L 184 878 L 183 879 L 184 878 L 186 878 L 187 879 L 190 879 L 191 880 L 194 880 L 195 881 L 197 881 L 198 882 L 201 882 L 202 883 L 205 883 L 206 884 L 210 884 L 211 885 L 215 885 L 216 886 L 220 886 L 221 887 L 226 887 L 227 888 L 233 888 L 234 889 L 241 889 L 242 890 L 255 890 L 256 891 L 288 891 L 289 890 L 301 890 L 302 889 L 311 889 L 312 888 L 319 888 L 320 887 L 325 887 L 326 886 L 331 886 L 332 885 L 336 885 L 337 884 L 341 884 L 342 883 L 345 883 L 346 882 L 349 882 L 350 881 L 353 881 L 354 880 L 357 880 L 358 879 L 361 879 L 362 878 L 364 878 L 365 877 L 367 877 L 368 876 L 370 876 L 371 875 L 373 875 L 374 874 L 376 874 L 377 873 L 379 873 L 380 872 L 381 872 L 382 871 L 384 871 L 385 870 L 386 870 L 387 869 L 389 869 L 390 868 L 391 868 L 392 867 L 394 867 L 395 866 L 396 866 L 397 865 L 398 865 L 399 864 L 400 864 L 401 863 L 402 863 L 403 862 L 404 862 L 405 861 L 407 861 L 408 860 L 409 860 L 410 859 L 411 859 L 413 857 L 414 857 L 415 856 L 416 856 L 417 855 L 418 855 L 419 854 L 420 854 L 421 853 L 422 853 L 423 852 L 424 852 L 426 850 L 427 850 L 428 849 L 429 849 L 430 850 L 429 849 L 431 847 L 432 847 L 433 846 L 434 846 L 436 844 L 437 844 L 439 842 L 440 842 L 442 840 L 443 840 L 445 838 L 446 838 L 448 836 L 449 836 L 452 833 L 453 833 L 455 831 L 456 831 L 459 828 L 460 828 L 464 824 L 465 824 L 469 820 L 470 820 L 476 814 L 477 814 L 483 808 L 484 808 L 491 801 L 492 801 L 497 796 L 499 796 L 509 806 L 510 806 L 516 812 L 517 812 L 523 818 L 524 818 L 528 822 L 529 822 L 533 826 L 534 826 L 537 829 L 538 829 L 541 832 L 542 832 L 544 834 L 545 834 L 548 837 L 549 837 L 551 839 L 552 839 L 553 840 L 552 841 L 553 840 L 554 841 L 555 841 L 557 843 L 556 844 L 557 845 L 556 844 L 557 843 L 558 843 L 559 844 L 560 844 L 562 846 L 563 846 L 565 848 L 566 848 L 567 849 L 568 849 L 570 851 L 571 851 L 572 852 L 571 853 L 572 854 L 571 853 L 572 852 L 573 852 L 574 853 L 575 853 L 576 854 L 577 854 L 578 855 L 579 855 L 580 856 L 581 856 L 583 858 L 585 858 L 586 859 L 587 859 L 589 861 L 590 861 L 591 862 L 593 862 L 594 863 L 595 863 L 596 864 L 597 864 L 598 865 L 599 865 L 600 866 L 602 866 L 603 867 L 604 867 L 605 868 L 606 868 L 607 869 L 609 869 L 610 870 L 611 870 L 612 871 L 614 871 L 615 872 L 617 872 L 618 873 L 620 873 L 621 874 L 622 874 L 623 875 L 626 875 L 627 876 L 629 876 L 630 877 L 632 877 L 633 878 L 636 878 L 637 879 L 639 879 L 640 880 L 643 880 L 644 881 L 647 881 L 648 882 L 651 882 L 652 883 L 655 883 L 656 884 L 660 884 L 661 885 L 665 885 L 666 886 L 670 886 L 671 887 L 677 887 L 678 888 L 684 888 L 685 889 L 693 889 L 694 890 L 706 890 L 707 891 L 735 891 L 736 890 L 749 890 L 750 889 L 758 889 L 759 888 L 765 888 L 766 887 L 771 887 L 772 886 L 777 886 L 778 885 L 782 885 L 783 884 L 787 884 L 788 883 L 792 883 L 793 882 L 796 882 L 797 881 L 799 881 L 800 880 L 804 880 L 805 881 L 806 881 L 805 881 L 804 880 L 805 879 L 806 879 L 807 878 L 810 878 L 811 877 L 813 877 L 814 876 L 816 876 L 817 875 L 819 875 L 820 874 L 822 874 L 823 873 L 825 873 L 826 872 L 828 872 L 829 871 L 830 871 L 831 870 L 832 870 L 833 869 L 835 869 L 836 868 L 837 868 L 838 867 L 840 867 L 841 866 L 842 866 L 843 865 L 844 865 L 845 864 L 847 864 L 848 863 L 849 863 L 850 862 L 851 862 L 852 861 L 853 861 L 854 860 L 855 860 L 856 859 L 857 859 L 858 858 L 859 858 L 860 857 L 861 857 L 862 856 L 863 856 L 864 855 L 865 855 L 866 854 L 867 854 L 868 853 L 869 853 L 871 851 L 872 851 L 873 850 L 874 850 L 875 849 L 876 849 L 877 848 L 878 848 L 880 846 L 881 846 L 882 847 L 881 846 L 882 845 L 883 845 L 885 843 L 886 843 L 888 841 L 889 841 L 890 840 L 891 840 L 893 838 L 894 838 L 896 836 L 897 836 L 899 834 L 900 834 L 902 832 L 903 832 L 905 830 L 905 829 L 906 828 L 906 825 L 907 824 L 906 823 L 906 820 L 904 818 L 904 817 L 901 814 L 901 813 L 899 811 L 899 810 L 897 808 L 897 807 L 895 805 L 895 804 L 893 802 L 893 801 L 891 799 L 891 798 L 889 796 L 889 795 L 887 793 L 887 792 L 884 789 L 884 788 L 882 786 L 882 785 L 880 783 L 880 782 L 878 780 L 878 779 L 876 777 L 876 776 L 874 774 L 874 773 L 872 771 L 872 770 L 870 768 L 870 767 L 867 764 L 867 763 L 865 761 L 865 760 L 863 758 L 863 757 L 861 755 L 861 754 L 859 752 L 859 751 L 857 749 L 857 748 L 855 746 L 855 745 L 850 740 L 844 740 L 843 741 L 842 741 L 841 740 L 842 741 L 838 745 L 837 745 L 834 748 L 833 748 L 832 749 L 831 749 L 829 751 L 828 751 L 826 753 L 825 753 L 823 755 L 822 755 L 821 756 L 820 756 L 819 757 L 818 757 L 817 756 L 818 757 L 817 758 L 816 758 L 815 759 L 814 759 L 813 760 L 812 760 L 811 761 L 810 761 L 809 762 L 808 762 L 807 763 L 806 763 L 805 764 L 803 764 L 802 765 L 801 765 L 800 766 L 799 766 L 798 767 L 796 767 L 795 768 L 793 768 L 792 769 L 790 769 L 789 770 L 788 770 L 787 771 L 784 771 L 783 772 L 781 772 L 780 773 L 778 773 L 777 774 L 774 774 L 773 775 L 770 775 L 769 776 L 766 776 L 765 777 L 762 777 L 761 778 L 757 778 L 756 779 L 752 779 L 751 780 L 746 780 L 745 781 L 739 781 L 738 782 L 729 782 L 728 783 L 695 783 L 694 782 L 686 782 L 685 781 L 679 781 L 678 780 L 673 780 L 672 779 L 668 779 L 667 778 L 664 778 L 663 777 L 659 777 L 658 776 L 656 776 L 655 775 L 652 775 L 651 774 L 649 774 L 648 773 L 646 773 L 645 772 L 643 772 L 642 771 L 640 771 L 639 770 L 637 770 L 636 769 L 634 769 L 633 768 L 632 768 L 631 767 L 629 767 L 628 766 L 627 766 L 626 765 L 624 765 L 623 764 L 622 764 L 621 763 L 620 763 L 619 762 L 618 762 L 617 761 L 616 761 L 615 760 L 614 760 L 613 759 L 612 759 L 611 758 L 610 758 L 609 757 L 608 757 L 606 755 L 605 755 L 604 754 L 603 754 L 601 752 L 600 752 L 598 750 L 597 750 L 596 749 L 595 749 L 592 746 L 591 746 L 589 744 L 588 744 L 585 741 L 584 741 L 580 737 L 579 737 L 563 721 L 563 720 L 564 719 L 564 718 L 566 716 L 566 715 L 569 712 L 569 711 L 571 709 L 571 708 L 573 706 L 573 705 L 576 702 L 576 701 L 578 699 L 578 698 L 580 696 L 580 695 L 583 692 L 583 691 L 585 689 L 585 688 L 587 686 L 587 685 L 590 682 L 590 681 L 592 679 L 592 678 L 594 676 L 594 675 L 596 673 L 596 672 L 599 669 L 599 668 L 601 666 L 601 665 L 603 663 L 603 662 L 606 659 L 606 658 L 608 656 L 608 655 L 610 653 L 610 652 L 612 650 L 612 649 L 615 646 L 615 645 L 617 643 L 617 642 L 619 640 L 619 639 L 621 637 L 621 636 L 623 634 L 623 633 L 626 630 L 626 629 L 629 626 L 629 625 L 632 622 L 632 621 L 634 619 L 634 618 L 637 615 L 637 614 L 640 611 L 640 610 L 642 608 L 642 607 L 644 605 L 644 604 L 647 601 L 647 600 L 649 598 L 649 597 L 651 595 L 651 594 L 654 591 L 654 590 L 656 588 L 656 587 L 659 584 L 659 583 L 661 581 L 661 580 L 663 578 L 663 577 L 665 575 L 665 574 L 668 571 L 668 570 L 670 568 L 670 567 L 672 565 L 672 564 L 675 561 L 675 560 L 677 558 L 677 557 L 679 555 L 679 554 L 682 551 L 682 550 L 684 548 L 684 547 L 686 545 L 686 544 L 689 541 L 689 540 L 691 538 L 691 537 L 693 535 L 693 534 L 695 532 L 695 531 L 697 529 L 697 528 L 700 525 L 700 524 L 702 522 L 702 521 L 704 519 L 704 518 L 707 515 L 707 514 L 709 512 L 709 511 L 711 509 L 711 508 L 713 506 L 713 505 L 716 502 L 716 501 L 718 499 L 718 498 L 720 496 L 720 495 L 722 493 L 722 492 L 724 490 L 724 489 L 726 487 L 726 486 L 729 483 L 729 482 L 731 480 L 731 479 L 733 477 L 733 476 L 734 475 L 734 474 L 736 472 L 736 471 L 738 469 L 738 468 L 740 466 L 740 465 L 741 464 L 741 463 L 743 461 L 743 460 L 744 459 L 744 458 L 746 456 L 746 455 L 747 454 L 747 453 L 748 452 L 748 451 L 750 449 L 750 448 L 751 447 L 752 448 L 751 447 L 751 446 L 752 445 L 752 444 L 753 443 L 753 442 L 754 441 L 754 440 L 755 439 L 755 438 L 756 437 L 756 436 L 757 435 L 757 434 L 758 433 L 758 432 L 759 431 L 759 429 L 760 428 L 760 427 L 761 426 L 761 425 L 762 424 L 762 422 L 763 421 L 763 420 L 764 419 L 764 418 L 765 417 L 765 415 L 766 414 L 766 413 L 767 412 L 767 410 L 768 409 L 768 408 L 769 407 L 769 405 L 770 404 L 770 402 L 771 401 L 771 399 L 772 398 L 772 396 L 773 395 L 773 392 L 774 391 L 774 389 L 775 388 L 775 386 L 776 385 L 776 382 L 777 381 L 777 379 L 778 378 L 778 375 L 779 374 L 779 371 L 780 370 L 780 367 L 781 366 L 781 362 L 782 361 L 782 358 L 783 357 L 783 353 L 784 352 L 784 348 L 785 347 L 785 341 L 786 340 L 786 335 L 787 334 L 787 328 L 788 327 L 788 319 L 789 318 L 789 306 L 790 305 L 790 258 L 789 257 L 789 247 L 788 246 L 788 238 L 787 237 L 787 232 L 786 231 L 786 225 L 785 224 L 785 220 L 784 219 L 784 215 L 783 214 L 783 211 L 782 210 L 782 206 L 781 205 L 781 203 L 780 202 L 780 199 L 779 198 L 779 195 L 778 194 L 778 192 L 777 191 L 777 189 L 776 188 L 776 185 L 775 184 L 775 182 L 774 181 L 774 180 L 773 179 L 773 177 L 772 176 L 772 174 L 771 173 L 771 171 L 772 170 L 771 171 L 770 170 L 770 169 L 769 168 L 769 167 L 768 166 L 768 164 L 767 163 L 767 162 L 766 161 L 766 159 L 765 158 L 765 157 L 764 156 L 764 155 L 763 154 L 763 153 L 762 152 L 762 151 L 761 150 L 761 149 L 760 148 L 760 147 L 759 146 L 759 145 L 758 144 L 758 143 L 757 142 L 757 141 L 756 140 L 756 139 L 755 138 L 755 137 L 751 133 L 744 133 L 743 134 L 742 134 L 733 143 L 732 143 L 722 153 L 721 153 L 712 162 L 711 162 L 702 171 L 701 171 L 692 180 L 691 180 L 688 183 L 687 182 L 688 183 L 681 190 L 680 190 L 671 199 L 670 199 L 662 207 L 661 207 L 661 208 L 660 209 L 659 209 L 651 217 L 650 217 L 645 222 L 645 223 L 644 224 L 644 227 L 643 228 L 644 229 L 644 232 L 645 233 L 645 234 L 644 235 L 645 234 L 646 235 L 646 237 L 647 238 L 647 239 L 648 240 L 648 242 L 649 243 L 649 245 L 650 246 L 650 248 L 651 249 L 651 250 L 652 251 L 652 253 L 653 254 L 653 256 L 654 257 L 654 260 L 655 261 L 655 263 L 656 264 L 656 266 L 657 267 L 657 270 L 658 271 L 658 273 L 659 274 L 659 277 L 660 278 L 660 281 L 661 282 L 661 286 L 662 287 L 662 291 L 663 292 L 663 298 L 664 299 L 664 305 L 665 306 L 665 317 L 666 318 L 666 341 L 665 342 L 665 355 L 664 356 L 664 363 L 663 364 L 663 369 L 662 370 L 662 374 L 661 375 L 661 378 L 660 379 L 660 383 L 659 384 L 659 387 L 658 388 L 658 390 L 657 391 L 657 394 L 656 395 L 656 397 L 655 398 L 655 400 L 654 401 L 654 403 L 653 404 L 653 406 L 652 407 L 652 408 L 651 409 L 651 411 L 650 412 L 650 413 L 649 414 L 649 416 L 648 417 L 648 418 L 647 419 L 647 420 L 646 421 L 646 422 L 645 423 L 645 424 L 644 425 L 644 426 L 643 427 L 643 428 L 642 429 L 642 430 L 641 431 L 641 432 L 640 433 L 640 434 L 638 436 L 638 437 L 637 438 L 637 439 L 636 440 L 636 441 L 634 443 L 634 444 L 632 446 L 632 447 L 630 449 L 630 450 L 628 452 L 628 453 L 626 455 L 626 456 L 623 459 L 623 460 L 620 463 L 620 464 L 617 467 L 617 468 L 614 471 L 614 472 L 612 474 L 612 475 L 609 478 L 609 479 L 606 482 L 606 483 L 603 486 L 602 485 L 603 486 L 603 487 L 600 490 L 600 491 L 598 493 L 598 494 L 595 497 L 595 498 L 593 500 L 592 499 L 593 500 L 593 501 L 590 504 L 590 505 L 588 507 L 588 508 L 585 511 L 585 512 L 582 515 L 582 516 L 580 518 L 580 519 L 577 522 L 577 523 L 575 525 L 575 526 L 573 528 L 573 529 L 570 532 L 570 533 L 567 536 L 567 537 L 565 539 L 565 540 L 563 542 L 563 543 L 560 546 L 560 547 L 558 549 L 558 550 L 555 553 L 555 554 L 554 555 L 553 554 L 554 555 L 553 556 L 553 557 L 551 559 L 551 560 L 549 562 L 549 563 L 546 566 L 546 567 L 544 569 L 544 570 L 541 573 L 541 574 L 539 576 L 538 575 L 539 576 L 539 577 L 537 579 L 537 580 L 534 583 L 534 584 L 532 586 L 532 587 L 529 590 L 529 591 L 527 593 L 527 594 L 525 596 L 525 597 L 522 600 L 521 599 L 520 600 L 521 599 L 522 600 L 522 601 L 520 603 L 520 604 L 517 607 L 517 608 L 515 610 L 515 611 L 513 613 L 513 614 L 510 617 L 510 618 L 508 620 L 507 619 L 508 620 L 508 621 L 506 623 L 506 624 L 503 627 L 503 628 L 501 630 L 501 631 L 498 634 L 497 633 L 497 632 L 495 630 L 495 629 L 492 626 L 492 625 L 490 623 L 490 622 L 488 620 L 488 619 L 485 616 L 485 615 L 483 613 L 483 612 L 481 610 L 481 609 L 482 608 L 481 609 L 478 606 L 478 605 L 476 603 L 476 602 L 474 600 L 474 599 L 472 597 L 472 596 L 469 593 L 469 592 L 467 590 L 467 589 L 464 586 L 464 585 L 462 583 L 462 582 L 459 579 L 459 578 L 457 576 L 457 575 L 455 573 L 455 572 L 453 570 L 453 569 L 450 566 L 450 565 L 448 563 L 448 562 L 446 560 L 446 559 L 443 556 L 443 555 L 441 553 L 441 552 L 438 549 L 438 548 L 436 546 L 436 545 L 434 543 L 434 542 L 431 539 L 431 538 L 429 536 L 429 535 L 426 532 L 426 531 L 427 530 L 426 531 L 424 529 L 424 528 L 421 525 L 421 524 L 419 522 L 419 521 L 416 518 L 416 517 L 414 515 L 414 514 L 411 511 L 411 510 L 409 508 L 409 507 L 410 506 L 409 507 L 406 504 L 406 503 L 403 500 L 403 499 L 401 497 L 401 496 L 398 493 L 398 492 L 395 489 L 395 488 L 396 487 L 395 488 L 393 486 L 393 485 L 390 482 L 390 481 L 387 478 L 387 477 L 384 474 L 384 473 L 381 470 L 381 469 L 379 467 L 379 466 L 376 463 L 376 462 L 373 459 L 373 458 L 370 455 L 370 454 L 367 451 L 367 450 L 365 448 L 365 447 L 363 445 L 363 444 L 362 443 L 362 442 L 360 440 L 360 439 L 358 437 L 358 436 L 357 435 L 357 434 L 356 433 L 356 432 L 355 431 L 355 430 L 353 428 L 353 427 L 352 426 L 352 425 L 351 424 L 351 423 L 350 422 L 350 420 L 349 419 L 349 418 L 348 417 L 348 416 L 347 415 L 347 413 L 346 412 L 346 411 L 345 410 L 345 409 L 344 408 L 344 406 L 343 405 L 343 403 L 342 402 L 342 400 L 341 399 L 341 397 L 340 396 L 340 394 L 339 393 L 339 390 L 338 389 L 338 387 L 337 386 L 337 383 L 336 382 L 336 378 L 335 377 L 335 374 L 334 373 L 334 368 L 333 367 L 333 362 L 332 361 L 332 353 L 331 352 L 331 338 L 330 337 L 330 327 L 331 326 L 330 325 L 331 324 L 331 308 L 332 307 L 332 299 L 333 298 L 333 293 L 334 292 L 334 287 L 335 286 L 335 283 L 336 282 L 336 278 L 337 277 L 337 274 L 338 273 L 338 271 L 339 270 L 339 267 L 340 266 L 340 264 L 341 263 L 341 260 L 342 259 L 342 257 L 343 256 L 343 255 L 344 254 L 344 251 L 345 250 L 345 248 L 346 247 L 346 246 L 347 245 L 347 243 L 348 242 L 348 240 L 349 239 L 349 238 L 350 237 L 350 235 L 351 234 L 351 233 L 352 232 L 352 224 L 350 222 L 350 221 L 349 220 L 348 220 L 337 209 L 336 209 L 327 200 L 326 200 L 317 191 L 316 191 L 307 182 L 306 182 L 297 173 L 298 172 L 297 173 L 296 172 L 295 172 L 285 162 L 284 162 L 274 152 L 273 152 L 264 143 L 263 143 L 254 134 L 253 134 L 252 133 L 250 133 L 249 132 Z " fill="#2A2E83"/></svg>