<svg xmlns="http://www.w3.org/2000/svg" xmlns:xlink="http://www.w3.org/1999/xlink" width="2000" zoomAndPan="magnify" viewBox="0 0 1500 1499.999933" height="2000" preserveAspectRatio="xMidYMid meet" version="1.2"><defs/><g id="72ba38afe8"><rect x="0" width="1500" y="0" height="1499.999933" style="fill:#ffffff;fill-opacity:1;stroke:none;"/><rect x="0" width="1500" y="0" height="1499.999933" style="fill:#ffffff;fill-opacity:1;stroke:none;"/><g style="fill:#1bafcb;fill-opacity:1;"><g transform="translate(78.515652, 872.251777)"><path style="stroke:none" d="M 76.625 -179.40625 C 72 -178.875 68.171875 -178.160156 65.140625 -177.265625 C 62.117188 -176.378906 59.757812 -175.132812 58.0625 -173.53125 C 56.375 -171.9375 55.171875 -169.847656 54.453125 -167.265625 C 53.742188 -164.679688 53.390625 -161.429688 53.390625 -157.515625 C 53.390625 -147.191406 53.921875 -137.582031 54.984375 -128.6875 C 56.054688 -119.789062 56.59375 -112.582031 56.59375 -107.0625 C 56.59375 -98.519531 54.679688 -91.398438 50.859375 -85.703125 C 47.035156 -80.003906 40.851562 -76.175781 32.3125 -74.21875 C 40.851562 -72.257812 47.035156 -68.429688 50.859375 -62.734375 C 54.679688 -57.046875 56.59375 -49.925781 56.59375 -41.375 C 56.59375 -35.863281 56.054688 -28.65625 54.984375 -19.75 C 53.921875 -10.851562 53.390625 -1.242188 53.390625 9.078125 C 53.390625 12.992188 53.742188 16.238281 54.453125 18.8125 C 55.171875 21.394531 56.375 23.488281 58.0625 25.09375 C 59.757812 26.695312 62.117188 27.941406 65.140625 28.828125 C 68.171875 29.722656 72 30.4375 76.625 30.96875 L 83.828125 31.765625 L 83.828125 42.453125 L 71.8125 42.453125 C 59 42.453125 49.03125 39.691406 41.90625 34.171875 C 34.789062 28.648438 31.234375 20.550781 31.234375 9.875 C 31.234375 4.363281 31.8125 -0.878906 32.96875 -5.859375 C 34.125 -10.847656 35.414062 -15.566406 36.84375 -20.015625 C 38.269531 -24.472656 39.5625 -28.75 40.71875 -32.84375 C 41.875 -36.9375 42.453125 -40.757812 42.453125 -44.3125 C 42.453125 -51.082031 39.957031 -56.515625 34.96875 -60.609375 C 29.988281 -64.703125 21.890625 -67.457031 10.671875 -68.875 L 10.671875 -79.5625 C 21.890625 -80.988281 29.988281 -83.75 34.96875 -87.84375 C 39.957031 -91.9375 42.453125 -97.363281 42.453125 -104.125 C 42.453125 -107.6875 41.875 -111.515625 40.71875 -115.609375 C 39.5625 -119.703125 38.269531 -123.972656 36.84375 -128.421875 C 35.414062 -132.867188 34.125 -137.582031 32.96875 -142.5625 C 31.8125 -147.550781 31.234375 -152.804688 31.234375 -158.328125 C 31.234375 -169.003906 34.789062 -177.097656 41.90625 -182.609375 C 49.03125 -188.128906 59 -190.890625 71.8125 -190.890625 L 83.828125 -190.890625 L 83.828125 -180.21875 Z M 76.625 -179.40625 "/></g></g><g style="fill:#1bafcb;fill-opacity:1;"><g transform="translate(170.367206, 872.251777)"><path style="stroke:none" d=""/></g></g><g style="fill:#2a2e83;fill-opacity:1;"><g transform="translate(170.367206, 872.251777)"><path style="stroke:none" d="M 103.0625 -101.984375 C 97.007812 -107.148438 91.578125 -110.753906 86.765625 -112.796875 C 81.960938 -114.847656 77.335938 -115.875 72.890625 -115.875 C 67.898438 -115.875 63.179688 -114.804688 58.734375 -112.671875 C 54.285156 -110.535156 50.367188 -107.285156 46.984375 -102.921875 C 43.609375 -98.554688 40.941406 -93.082031 38.984375 -86.5 C 37.023438 -79.914062 36.046875 -72.085938 36.046875 -63.015625 C 36.046875 -54.109375 36.976562 -46.40625 38.84375 -39.90625 C 40.71875 -33.414062 43.300781 -28.035156 46.59375 -23.765625 C 49.882812 -19.492188 53.753906 -16.332031 58.203125 -14.28125 C 62.648438 -12.238281 67.546875 -11.21875 72.890625 -11.21875 C 78.585938 -11.21875 83.789062 -12.414062 88.5 -14.8125 C 93.21875 -17.21875 98.070312 -21.09375 103.0625 -26.4375 Z M 147.375 -9.609375 L 147.375 0 L 105.71875 2.671875 L 103.859375 -15.21875 C 99.234375 -8.988281 93.984375 -4.226562 88.109375 -0.9375 C 82.234375 2.351562 75.023438 4 66.484375 4 C 58.296875 4 50.863281 2.398438 44.1875 -0.796875 C 37.507812 -4.003906 31.765625 -8.546875 26.953125 -14.421875 C 22.148438 -20.296875 18.457031 -27.28125 15.875 -35.375 C 13.300781 -43.46875 12.015625 -52.410156 12.015625 -62.203125 C 12.015625 -72.347656 13.4375 -81.644531 16.28125 -90.09375 C 19.132812 -98.550781 23.097656 -105.804688 28.171875 -111.859375 C 33.242188 -117.910156 39.25 -122.628906 46.1875 -126.015625 C 53.125 -129.398438 60.6875 -131.09375 68.875 -131.09375 C 75.289062 -131.09375 81.34375 -129.800781 87.03125 -127.21875 C 92.726562 -124.632812 98.335938 -120.140625 103.859375 -113.734375 L 103.859375 -170.609375 L 81.15625 -173.265625 L 81.15625 -182.625 L 123.078125 -194.625 L 126.8125 -192.5 L 125.75 -154.578125 L 125.75 -13.078125 Z M 147.375 -9.609375 "/></g></g><g style="fill:#2a2e83;fill-opacity:1;"><g transform="translate(321.747418, 872.251777)"><path style="stroke:none" d="M 40.84375 -159.65625 C 35.6875 -159.65625 31.414062 -161.253906 28.03125 -164.453125 C 24.644531 -167.660156 22.953125 -171.847656 22.953125 -177.015625 C 22.953125 -182.171875 24.644531 -186.304688 28.03125 -189.421875 C 31.414062 -192.535156 35.6875 -194.09375 40.84375 -194.09375 C 46.007812 -194.09375 50.28125 -192.535156 53.65625 -189.421875 C 57.039062 -186.304688 58.734375 -182.171875 58.734375 -177.015625 C 58.734375 -171.847656 57.039062 -167.660156 53.65625 -164.453125 C 50.28125 -161.253906 46.007812 -159.65625 40.84375 -159.65625 Z M 71.28125 -9.609375 L 71.28125 0 L 9.34375 0 L 9.34375 -9.609375 L 29.375 -13.34375 C 29.550781 -20.113281 29.679688 -27.457031 29.765625 -35.375 C 29.859375 -43.289062 29.90625 -50.1875 29.90625 -56.0625 L 29.90625 -69.421875 C 29.90625 -76.710938 29.816406 -82.804688 29.640625 -87.703125 C 29.460938 -92.597656 29.28125 -97.71875 29.09375 -103.0625 L 8.015625 -105.453125 L 8.015625 -114.796875 L 49.125 -131.09375 L 53.125 -128.421875 L 52.328125 -92.109375 L 52.328125 -56.0625 C 52.328125 -50.1875 52.367188 -43.289062 52.453125 -35.375 C 52.546875 -27.457031 52.679688 -20.113281 52.859375 -13.34375 Z M 71.28125 -9.609375 "/></g></g><g style="fill:#2a2e83;fill-opacity:1;"><g transform="translate(401.308775, 872.251777)"><path style="stroke:none" d="M 68.875 -73.953125 C 82.40625 -68.972656 91.882812 -63.234375 97.3125 -56.734375 C 102.738281 -50.234375 105.453125 -42.800781 105.453125 -34.4375 C 105.453125 -29.457031 104.382812 -24.648438 102.25 -20.015625 C 100.113281 -15.390625 96.863281 -11.296875 92.5 -7.734375 C 88.144531 -4.179688 82.71875 -1.335938 76.21875 0.796875 C 69.726562 2.929688 62.207031 4 53.65625 4 C 46.007812 4 39.113281 3.15625 32.96875 1.46875 C 26.832031 -0.21875 20.378906 -2.84375 13.609375 -6.40625 L 12.8125 -35.515625 L 27.5 -35.515625 L 32.578125 -12.546875 C 38.804688 -9.703125 46.015625 -8.28125 54.203125 -8.28125 C 64.347656 -8.28125 71.910156 -10.144531 76.890625 -13.875 C 81.867188 -17.613281 84.359375 -22.597656 84.359375 -28.828125 C 84.359375 -34.523438 82.265625 -39.0625 78.078125 -42.4375 C 73.898438 -45.820312 67.539062 -49.117188 59 -52.328125 L 46.71875 -56.875 C 36.925781 -60.425781 29.09375 -65.09375 23.21875 -70.875 C 17.351562 -76.664062 14.421875 -83.832031 14.421875 -92.375 C 14.421875 -97.539062 15.53125 -102.4375 17.75 -107.0625 C 19.976562 -111.6875 23.09375 -115.78125 27.09375 -119.34375 C 31.101562 -122.90625 36 -125.753906 41.78125 -127.890625 C 47.5625 -130.023438 54.015625 -131.09375 61.140625 -131.09375 C 68.429688 -131.09375 75.015625 -130.15625 80.890625 -128.28125 C 86.765625 -126.414062 92.640625 -123.703125 98.515625 -120.140625 L 97.453125 -92.90625 L 83.5625 -92.90625 L 79.5625 -114.265625 C 73.15625 -117.296875 66.925781 -118.8125 60.875 -118.8125 C 52.6875 -118.8125 46.5 -117.070312 42.3125 -113.59375 C 38.132812 -110.125 36.046875 -105.363281 36.046875 -99.3125 C 36.046875 -93.976562 37.867188 -89.753906 41.515625 -86.640625 C 45.160156 -83.523438 51.613281 -80.273438 60.875 -76.890625 Z M 68.875 -73.953125 "/></g></g><g style="fill:#2a2e83;fill-opacity:1;"><g transform="translate(517.447025, 872.251777)"><path style="stroke:none" d="M 122.28125 -30.4375 C 118.71875 -19.21875 112.707031 -10.671875 104.25 -4.796875 C 95.800781 1.066406 85.171875 4 72.359375 4 C 63.273438 4 55.039062 2.441406 47.65625 -0.671875 C 40.269531 -3.785156 33.953125 -8.273438 28.703125 -14.140625 C 23.453125 -20.015625 19.445312 -27.09375 16.6875 -35.375 C 13.925781 -43.65625 12.546875 -52.867188 12.546875 -63.015625 C 12.546875 -73.515625 14.234375 -82.988281 17.609375 -91.4375 C 20.992188 -99.894531 25.578125 -107.0625 31.359375 -112.9375 C 37.148438 -118.8125 43.738281 -123.304688 51.125 -126.421875 C 58.507812 -129.535156 66.207031 -131.09375 74.21875 -131.09375 C 80.269531 -131.09375 86.007812 -130.203125 91.4375 -128.421875 C 96.863281 -126.640625 101.671875 -124.191406 105.859375 -121.078125 C 110.046875 -117.960938 113.472656 -114.3125 116.140625 -110.125 C 118.804688 -105.945312 120.585938 -101.363281 121.484375 -96.375 C 120.234375 -89.613281 116.140625 -86.234375 109.203125 -86.234375 C 104.742188 -86.234375 101.445312 -87.429688 99.3125 -89.828125 C 97.175781 -92.234375 95.664062 -95.304688 94.78125 -99.046875 L 89.96875 -116.671875 C 87.476562 -117.554688 84.988281 -118.132812 82.5 -118.40625 C 80.007812 -118.675781 77.695312 -118.8125 75.5625 -118.8125 C 63.988281 -118.8125 54.507812 -114.269531 47.125 -105.1875 C 39.738281 -96.113281 36.046875 -82.941406 36.046875 -65.671875 C 36.046875 -48.585938 40.003906 -35.550781 47.921875 -26.5625 C 55.835938 -17.570312 66.117188 -13.078125 78.765625 -13.078125 C 86.410156 -13.078125 93.4375 -14.859375 99.84375 -18.421875 C 106.257812 -21.984375 111.515625 -27.144531 115.609375 -33.90625 Z M 122.28125 -30.4375 "/></g></g><g style="fill:#2a2e83;fill-opacity:1;"><g transform="translate(647.735483, 872.251777)"><path style="stroke:none" d="M 85.703125 -76.09375 C 92.109375 -76.09375 96.378906 -77.425781 98.515625 -80.09375 C 100.648438 -82.757812 101.71875 -86.050781 101.71875 -89.96875 C 101.71875 -93.707031 100.960938 -97.3125 99.453125 -100.78125 C 97.941406 -104.257812 95.894531 -107.332031 93.3125 -110 C 90.726562 -112.664062 87.703125 -114.800781 84.234375 -116.40625 C 80.765625 -118.007812 76.984375 -118.8125 72.890625 -118.8125 C 69.148438 -118.8125 65.273438 -118.050781 61.265625 -116.53125 C 57.265625 -115.019531 53.617188 -112.53125 50.328125 -109.0625 C 47.035156 -105.59375 44.1875 -101.144531 41.78125 -95.71875 C 39.375 -90.289062 37.816406 -83.75 37.109375 -76.09375 Z M 36.578125 -64.609375 C 36.929688 -48.054688 41.023438 -35.328125 48.859375 -26.421875 C 56.691406 -17.523438 67.015625 -13.078125 79.828125 -13.078125 C 88.367188 -13.078125 95.488281 -14.859375 101.1875 -18.421875 C 106.882812 -21.984375 112.132812 -26.613281 116.9375 -32.3125 L 123.34375 -27.234375 C 118.71875 -17.617188 112.085938 -10.007812 103.453125 -4.40625 C 94.816406 1.195312 84.359375 4 72.078125 4 C 63.003906 4 54.816406 2.488281 47.515625 -0.53125 C 40.222656 -3.5625 33.992188 -7.96875 28.828125 -13.75 C 23.671875 -19.53125 19.664062 -26.515625 16.8125 -34.703125 C 13.96875 -42.890625 12.546875 -52.054688 12.546875 -62.203125 C 12.546875 -72.347656 14.144531 -81.644531 17.34375 -90.09375 C 20.550781 -98.550781 24.957031 -105.804688 30.5625 -111.859375 C 36.175781 -117.910156 42.71875 -122.628906 50.1875 -126.015625 C 57.664062 -129.398438 65.585938 -131.09375 73.953125 -131.09375 C 80.890625 -131.09375 87.425781 -129.929688 93.5625 -127.609375 C 99.707031 -125.296875 105.003906 -121.914062 109.453125 -117.46875 C 113.910156 -113.019531 117.425781 -107.59375 120 -101.1875 C 122.582031 -94.78125 123.875 -87.570312 123.875 -79.5625 C 123.875 -76.53125 123.695312 -73.769531 123.34375 -71.28125 C 122.988281 -68.789062 122.546875 -66.566406 122.015625 -64.609375 Z M 36.578125 -64.609375 "/></g></g><g style="fill:#2a2e83;fill-opacity:1;"><g transform="translate(783.897597, 872.251777)"><path style="stroke:none" d="M 53.390625 -97.1875 C 58.023438 -107.863281 63.765625 -116.179688 70.609375 -122.140625 C 77.460938 -128.109375 84.539062 -131.09375 91.84375 -131.09375 C 95.757812 -131.09375 99.539062 -130.066406 103.1875 -128.015625 C 106.832031 -125.972656 109.101562 -122.632812 110 -118 C 110 -113.550781 108.484375 -110.035156 105.453125 -107.453125 C 102.429688 -104.878906 98.609375 -103.59375 93.984375 -103.59375 C 88.460938 -103.59375 83.390625 -105.816406 78.765625 -110.265625 L 76.890625 -112.140625 C 71.367188 -108.046875 66.738281 -103.191406 63 -97.578125 C 59.269531 -91.972656 56.15625 -85.164062 53.65625 -77.15625 L 53.65625 -56.0625 C 53.65625 -50.1875 53.703125 -43.332031 53.796875 -35.5 C 53.890625 -27.675781 54.023438 -20.378906 54.203125 -13.609375 L 76.09375 -9.609375 L 76.09375 0 L 11.484375 0 L 11.484375 -9.609375 L 30.703125 -13.078125 C 30.878906 -19.847656 31.007812 -27.191406 31.09375 -35.109375 C 31.1875 -43.023438 31.234375 -50.007812 31.234375 -56.0625 L 31.234375 -69.6875 C 31.234375 -76.976562 31.144531 -83.023438 30.96875 -87.828125 C 30.789062 -92.640625 30.613281 -97.71875 30.4375 -103.0625 L 9.34375 -105.453125 L 9.34375 -114.796875 L 46.453125 -131.09375 L 50.453125 -128.421875 Z M 53.390625 -97.1875 "/></g></g><g style="fill:#2a2e83;fill-opacity:1;"><g transform="translate(896.832051, 872.251777)"><path style="stroke:none" d="M 154.046875 -9.609375 L 154.046875 0 L 92.109375 0 L 92.109375 -9.609375 L 111.859375 -13.34375 C 112.046875 -19.9375 112.179688 -27.144531 112.265625 -34.96875 C 112.359375 -42.800781 112.40625 -49.832031 112.40625 -56.0625 L 112.40625 -79.5625 C 112.40625 -91.664062 110.710938 -100.117188 107.328125 -104.921875 C 103.941406 -109.734375 98.332031 -112.140625 90.5 -112.140625 C 84.269531 -112.140625 78.265625 -110.800781 72.484375 -108.125 C 66.703125 -105.457031 60.425781 -101.1875 53.65625 -95.3125 L 53.65625 -56.0625 C 53.65625 -50.1875 53.703125 -43.289062 53.796875 -35.375 C 53.890625 -27.457031 54.023438 -20.113281 54.203125 -13.34375 L 72.890625 -9.609375 L 72.890625 0 L 10.953125 0 L 10.953125 -9.609375 L 30.703125 -13.34375 C 30.878906 -20.113281 31.007812 -27.410156 31.09375 -35.234375 C 31.1875 -43.066406 31.234375 -50.007812 31.234375 -56.0625 L 31.234375 -69.6875 C 31.234375 -76.976562 31.144531 -83.023438 30.96875 -87.828125 C 30.789062 -92.640625 30.613281 -97.71875 30.4375 -103.0625 L 9.34375 -105.453125 L 9.34375 -114.796875 L 46.453125 -131.09375 L 50.453125 -128.421875 L 52.59375 -106.796875 C 59.175781 -114.085938 66.695312 -119.957031 75.15625 -124.40625 C 83.613281 -128.863281 92.113281 -131.09375 100.65625 -131.09375 C 112.21875 -131.09375 120.800781 -127.265625 126.40625 -119.609375 C 132.019531 -111.953125 134.828125 -99.316406 134.828125 -81.703125 L 134.828125 -56.0625 C 134.828125 -49.832031 134.867188 -42.847656 134.953125 -35.109375 C 135.046875 -27.367188 135.179688 -20.113281 135.359375 -13.34375 Z M 154.046875 -9.609375 "/></g></g><g style="fill:#2a2e83;fill-opacity:1;"><g transform="translate(1057.556707, 872.251777)"><path style="stroke:none" d="M 146.84375 -9.609375 L 146.84375 0 L 109.734375 2.671875 L 106.796875 -21.09375 C 99.492188 -12.195312 91.835938 -5.789062 83.828125 -1.875 C 75.816406 2.039062 67.71875 4 59.53125 4 C 54.195312 4 49.347656 3.15625 44.984375 1.46875 C 40.628906 -0.21875 36.9375 -2.972656 33.90625 -6.796875 C 30.882812 -10.628906 28.613281 -15.570312 27.09375 -21.625 C 25.582031 -27.675781 24.828125 -35.148438 24.828125 -44.046875 L 25.625 -111.328125 L 6.671875 -115.34375 L 6.671875 -124.6875 L 45.921875 -128.421875 L 48.59375 -125.75 L 47.25 -88.375 L 47.25 -46.984375 C 47.25 -35.054688 48.984375 -26.734375 52.453125 -22.015625 C 55.929688 -17.304688 61.316406 -14.953125 68.609375 -14.953125 C 81.066406 -14.953125 93.53125 -20.738281 106 -32.3125 L 106.796875 -111.328125 L 87.84375 -115.34375 L 87.84375 -124.6875 L 126.546875 -128.421875 L 129.21875 -125.75 L 128.421875 -88.375 L 128.421875 -13.609375 Z M 146.84375 -9.609375 "/></g></g><g style="fill:#2a2e83;fill-opacity:1;"><g transform="translate(1213.475671, 872.251777)"><path style="stroke:none" d="M 68.875 -73.953125 C 82.40625 -68.972656 91.882812 -63.234375 97.3125 -56.734375 C 102.738281 -50.234375 105.453125 -42.800781 105.453125 -34.4375 C 105.453125 -29.457031 104.382812 -24.648438 102.25 -20.015625 C 100.113281 -15.390625 96.863281 -11.296875 92.5 -7.734375 C 88.144531 -4.179688 82.71875 -1.335938 76.21875 0.796875 C 69.726562 2.929688 62.207031 4 53.65625 4 C 46.007812 4 39.113281 3.15625 32.96875 1.46875 C 26.832031 -0.21875 20.378906 -2.84375 13.609375 -6.40625 L 12.8125 -35.515625 L 27.5 -35.515625 L 32.578125 -12.546875 C 38.804688 -9.703125 46.015625 -8.28125 54.203125 -8.28125 C 64.347656 -8.28125 71.910156 -10.144531 76.890625 -13.875 C 81.867188 -17.613281 84.359375 -22.597656 84.359375 -28.828125 C 84.359375 -34.523438 82.265625 -39.0625 78.078125 -42.4375 C 73.898438 -45.820312 67.539062 -49.117188 59 -52.328125 L 46.71875 -56.875 C 36.925781 -60.425781 29.09375 -65.09375 23.21875 -70.875 C 17.351562 -76.664062 14.421875 -83.832031 14.421875 -92.375 C 14.421875 -97.539062 15.53125 -102.4375 17.75 -107.0625 C 19.976562 -111.6875 23.09375 -115.78125 27.09375 -119.34375 C 31.101562 -122.90625 36 -125.753906 41.78125 -127.890625 C 47.5625 -130.023438 54.015625 -131.09375 61.140625 -131.09375 C 68.429688 -131.09375 75.015625 -130.15625 80.890625 -128.28125 C 86.765625 -126.414062 92.640625 -123.703125 98.515625 -120.140625 L 97.453125 -92.90625 L 83.5625 -92.90625 L 79.5625 -114.265625 C 73.15625 -117.296875 66.925781 -118.8125 60.875 -118.8125 C 52.6875 -118.8125 46.5 -117.070312 42.3125 -113.59375 C 38.132812 -110.125 36.046875 -105.363281 36.046875 -99.3125 C 36.046875 -93.976562 37.867188 -89.753906 41.515625 -86.640625 C 45.160156 -83.523438 51.613281 -80.273438 60.875 -76.890625 Z M 68.875 -73.953125 "/></g></g><g style="fill:#2a2e83;fill-opacity:1;"><g transform="translate(1329.620994, 872.251777)"><path style="stroke:none" d=""/></g></g><g style="fill:#1bafcb;fill-opacity:1;"><g transform="translate(1329.620994, 872.251777)"><path style="stroke:none" d="M 81.15625 -68.875 C 69.945312 -67.457031 61.847656 -64.703125 56.859375 -60.609375 C 51.878906 -56.515625 49.390625 -51.082031 49.390625 -44.3125 C 49.390625 -40.757812 49.96875 -36.9375 51.125 -32.84375 C 52.28125 -28.75 53.570312 -24.472656 55 -20.015625 C 56.425781 -15.566406 57.71875 -10.847656 58.875 -5.859375 C 60.03125 -0.878906 60.609375 4.363281 60.609375 9.875 C 60.609375 20.550781 57.046875 28.648438 49.921875 34.171875 C 42.804688 39.691406 32.84375 42.453125 20.03125 42.453125 L 8.015625 42.453125 L 8.015625 31.765625 L 15.21875 30.96875 C 19.84375 30.4375 23.664062 29.722656 26.6875 28.828125 C 29.71875 27.941406 32.078125 26.695312 33.765625 25.09375 C 35.460938 23.488281 36.664062 21.394531 37.375 18.8125 C 38.09375 16.238281 38.453125 12.992188 38.453125 9.078125 C 38.453125 -1.242188 37.914062 -10.851562 36.84375 -19.75 C 35.769531 -28.65625 35.234375 -35.863281 35.234375 -41.375 C 35.234375 -49.925781 37.144531 -57.046875 40.96875 -62.734375 C 44.800781 -68.429688 50.988281 -72.257812 59.53125 -74.21875 C 50.988281 -76.175781 44.800781 -80.003906 40.96875 -85.703125 C 37.144531 -91.398438 35.234375 -98.519531 35.234375 -107.0625 C 35.234375 -112.582031 35.769531 -119.789062 36.84375 -128.6875 C 37.914062 -137.582031 38.453125 -147.191406 38.453125 -157.515625 C 38.453125 -161.429688 38.09375 -164.679688 37.375 -167.265625 C 36.664062 -169.847656 35.460938 -171.9375 33.765625 -173.53125 C 32.078125 -175.132812 29.71875 -176.378906 26.6875 -177.265625 C 23.664062 -178.160156 19.84375 -178.875 15.21875 -179.40625 L 8.015625 -180.21875 L 8.015625 -190.890625 L 20.03125 -190.890625 C 32.84375 -190.890625 42.804688 -188.128906 49.921875 -182.609375 C 57.046875 -177.097656 60.609375 -169.003906 60.609375 -158.328125 C 60.609375 -152.804688 60.03125 -147.550781 58.875 -142.5625 C 57.71875 -137.582031 56.425781 -132.867188 55 -128.421875 C 53.570312 -123.972656 52.28125 -119.703125 51.125 -115.609375 C 49.96875 -111.515625 49.390625 -107.6875 49.390625 -104.125 C 49.390625 -97.363281 51.878906 -91.9375 56.859375 -87.84375 C 61.847656 -83.75 69.945312 -80.988281 81.15625 -79.5625 Z M 81.15625 -68.875 "/></g></g><g style="fill:#1bafcb;fill-opacity:1;"><g transform="translate(1421.472586, 872.251777)"><path style="stroke:none" d=""/></g></g></g></svg>