<svg xmlns="http://www.w3.org/2000/svg" xmlns:xlink="http://www.w3.org/1999/xlink" width="2000" zoomAndPan="magnify" viewBox="0 0 1500 1499.999933" height="2000" preserveAspectRatio="xMidYMid meet" version="1.2"><defs/><g id="2f3f5ddade"><rect x="0" width="1500" y="0" height="1499.999933" style="fill:#ffffff;fill-opacity:1;stroke:none;"/><rect x="0" width="1500" y="0" height="1499.999933" style="fill:#ffffff;fill-opacity:1;stroke:none;"/><g style="fill:#1bafcb;fill-opacity:1;"><g transform="translate(215.466648, 1034.465186)"><path style="stroke:none" d="M 281.46875 -659.0625 C 264.46875 -657.101562 250.410156 -654.488281 239.296875 -651.21875 C 228.179688 -647.945312 219.519531 -643.367188 213.3125 -637.484375 C 207.101562 -631.597656 202.691406 -623.914062 200.078125 -614.4375 C 197.460938 -604.957031 196.15625 -593.023438 196.15625 -578.640625 C 196.15625 -540.722656 198.113281 -505.414062 202.03125 -472.71875 C 205.957031 -440.03125 207.921875 -413.550781 207.921875 -393.28125 C 207.921875 -361.894531 200.890625 -335.738281 186.828125 -314.8125 C 172.773438 -293.894531 150.054688 -279.84375 118.671875 -272.65625 C 150.054688 -265.457031 172.773438 -251.394531 186.828125 -230.46875 C 200.890625 -209.550781 207.921875 -183.398438 207.921875 -152.015625 C 207.921875 -131.742188 205.957031 -105.257812 202.03125 -72.5625 C 198.113281 -39.875 196.15625 -4.570312 196.15625 33.34375 C 196.15625 47.726562 197.460938 59.660156 200.078125 69.140625 C 202.691406 78.617188 207.101562 86.300781 213.3125 92.1875 C 219.519531 98.070312 228.179688 102.648438 239.296875 105.921875 C 250.410156 109.191406 264.46875 111.804688 281.46875 113.765625 L 307.953125 116.703125 L 307.953125 155.9375 L 263.828125 155.9375 C 216.742188 155.9375 180.125 145.800781 153.96875 125.53125 C 127.820312 105.257812 114.75 75.507812 114.75 36.28125 C 114.75 16.019531 116.875 -3.257812 121.125 -21.5625 C 125.375 -39.875 130.113281 -57.203125 135.34375 -73.546875 C 140.570312 -89.898438 145.3125 -105.59375 149.5625 -120.625 C 153.8125 -135.664062 155.9375 -149.722656 155.9375 -162.796875 C 155.9375 -187.648438 146.78125 -207.59375 128.46875 -222.625 C 110.164062 -237.664062 80.421875 -247.800781 39.234375 -253.03125 L 39.234375 -292.265625 C 80.421875 -297.492188 110.164062 -307.625 128.46875 -322.65625 C 146.78125 -337.695312 155.9375 -357.644531 155.9375 -382.5 C 155.9375 -395.570312 153.8125 -409.625 149.5625 -424.65625 C 145.3125 -439.695312 140.570312 -455.390625 135.34375 -471.734375 C 130.113281 -488.085938 125.375 -505.414062 121.125 -523.71875 C 116.875 -542.03125 114.75 -561.316406 114.75 -581.578125 C 114.75 -620.816406 127.820312 -650.566406 153.96875 -670.828125 C 180.125 -691.097656 216.742188 -701.234375 263.828125 -701.234375 L 307.953125 -701.234375 L 307.953125 -662 Z M 281.46875 -659.0625 "/></g></g><g style="fill:#2a2e83;fill-opacity:1;"><g transform="translate(457.719843, 1034.465186)"><path style="stroke:none" d="M 378.5625 -374.640625 C 356.332031 -393.609375 336.390625 -406.847656 318.734375 -414.359375 C 301.085938 -421.878906 284.09375 -425.640625 267.75 -425.640625 C 249.4375 -425.640625 232.109375 -421.71875 215.765625 -413.875 C 199.421875 -406.03125 185.035156 -394.097656 172.609375 -378.078125 C 160.191406 -362.054688 150.382812 -341.945312 143.1875 -317.75 C 136 -293.5625 132.40625 -264.796875 132.40625 -231.453125 C 132.40625 -198.765625 135.835938 -170.488281 142.703125 -146.625 C 149.566406 -122.757812 159.046875 -102.976562 171.140625 -87.28125 C 183.234375 -71.59375 197.453125 -59.988281 213.796875 -52.46875 C 230.148438 -44.945312 248.132812 -41.1875 267.75 -41.1875 C 288.664062 -41.1875 307.785156 -45.597656 325.109375 -54.421875 C 342.441406 -63.253906 360.257812 -77.476562 378.5625 -97.09375 Z M 541.375 -35.3125 L 541.375 0 L 388.375 9.8125 L 381.515625 -55.90625 C 364.515625 -33.019531 345.222656 -15.523438 323.640625 -3.421875 C 302.066406 8.671875 275.585938 14.71875 244.203125 14.71875 C 214.128906 14.71875 186.832031 8.832031 162.3125 -2.9375 C 137.789062 -14.707031 116.703125 -31.378906 99.046875 -52.953125 C 81.398438 -74.535156 67.835938 -100.203125 58.359375 -129.953125 C 48.878906 -159.703125 44.140625 -192.554688 44.140625 -228.515625 C 44.140625 -265.785156 49.367188 -299.945312 59.828125 -331 C 70.285156 -362.0625 84.832031 -388.707031 103.46875 -410.9375 C 122.101562 -433.164062 144.171875 -450.488281 169.671875 -462.90625 C 195.171875 -475.332031 222.957031 -481.546875 253.03125 -481.546875 C 276.570312 -481.546875 298.800781 -476.804688 319.71875 -467.328125 C 340.644531 -457.847656 361.242188 -441.335938 381.515625 -417.796875 L 381.515625 -626.703125 L 298.140625 -636.5 L 298.140625 -670.828125 L 452.125 -714.96875 L 465.859375 -707.125 L 461.9375 -567.859375 L 461.9375 -48.0625 Z M 541.375 -35.3125 "/></g></g><g style="fill:#1bafcb;fill-opacity:1;"><g transform="translate(947.120762, 1034.465186)"><path style="stroke:none" d="M 298.140625 -253.03125 C 256.953125 -247.800781 227.203125 -237.664062 208.890625 -222.625 C 190.585938 -207.59375 181.4375 -187.648438 181.4375 -162.796875 C 181.4375 -149.722656 183.5625 -135.664062 187.8125 -120.625 C 192.0625 -105.59375 196.800781 -89.898438 202.03125 -73.546875 C 207.257812 -57.203125 212 -39.875 216.25 -21.5625 C 220.5 -3.257812 222.625 16.019531 222.625 36.28125 C 222.625 75.507812 209.546875 105.257812 183.390625 125.53125 C 157.242188 145.800781 120.632812 155.9375 73.5625 155.9375 L 29.421875 155.9375 L 29.421875 116.703125 L 55.90625 113.765625 C 72.90625 111.804688 86.960938 109.191406 98.078125 105.921875 C 109.191406 102.648438 117.851562 98.070312 124.0625 92.1875 C 130.269531 86.300781 134.679688 78.617188 137.296875 69.140625 C 139.921875 59.660156 141.234375 47.726562 141.234375 33.34375 C 141.234375 -4.570312 139.269531 -39.875 135.34375 -72.5625 C 131.414062 -105.257812 129.453125 -131.742188 129.453125 -152.015625 C 129.453125 -183.398438 136.476562 -209.550781 150.53125 -230.46875 C 164.59375 -251.394531 187.316406 -265.457031 218.703125 -272.65625 C 187.316406 -279.84375 164.59375 -293.894531 150.53125 -314.8125 C 136.476562 -335.738281 129.453125 -361.894531 129.453125 -393.28125 C 129.453125 -413.550781 131.414062 -440.03125 135.34375 -472.71875 C 139.269531 -505.414062 141.234375 -540.722656 141.234375 -578.640625 C 141.234375 -593.023438 139.921875 -604.957031 137.296875 -614.4375 C 134.679688 -623.914062 130.269531 -631.597656 124.0625 -637.484375 C 117.851562 -643.367188 109.191406 -647.945312 98.078125 -651.21875 C 86.960938 -654.488281 72.90625 -657.101562 55.90625 -659.0625 L 29.421875 -662 L 29.421875 -701.234375 L 73.5625 -701.234375 C 120.632812 -701.234375 157.242188 -691.097656 183.390625 -670.828125 C 209.546875 -650.566406 222.625 -620.816406 222.625 -581.578125 C 222.625 -561.316406 220.5 -542.03125 216.25 -523.71875 C 212 -505.414062 207.257812 -488.085938 202.03125 -471.734375 C 196.800781 -455.390625 192.0625 -439.695312 187.8125 -424.65625 C 183.5625 -409.625 181.4375 -395.570312 181.4375 -382.5 C 181.4375 -357.644531 190.585938 -337.695312 208.890625 -322.65625 C 227.203125 -307.625 256.953125 -297.492188 298.140625 -292.265625 Z M 298.140625 -253.03125 "/></g></g></g></svg>